<?xml version="1.0" encoding="iso-8859-1"?>
<!-- Uploaded to: SVG Repo, www.svgrepo.com, Generator: SVG Repo Mixer Tools -->
<svg height="800px" width="800px" version="1.1" id="Layer_1" xmlns="http://www.w3.org/2000/svg" xmlns:xlink="http://www.w3.org/1999/xlink" 
	 viewBox="0 0 512 512" xml:space="preserve">
<path style="fill:#6B563C;" d="M74.056,234.848L21.1,49.506c-1.144-4.003,1.862-7.988,6.025-7.988h314.544
	c2.847,0,5.337,1.92,6.061,4.674l50.716,192.919L74.056,234.848z"/>
<path style="fill:#806749;" d="M57.169,242.397L0.669,129.399c-2.083-4.167,0.947-9.069,5.605-9.069h99.795
	c2.395,0,4.58,1.365,5.631,3.517l57.88,118.55H57.169z"/>
<path style="fill:#B39A7C;" d="M347.683,228.998l52.601-105.204c1.062-2.123,3.231-3.464,5.605-3.464h99.836
	c4.658,0,7.688,4.902,5.605,9.069l-49.799,99.599L347.683,228.998L347.683,228.998z"/>
<path style="fill:#957755;" d="M505.725,120.331h-29.558c4.658,0,7.688,4.902,5.605,9.069l-50.731,99.238l30.49,0.36L511.33,129.4
	C513.414,125.233,510.384,120.331,505.725,120.331z"/>
<path style="fill:#6B563C;" d="M41.519,455.298V210.402h157.624v260.08H56.701C48.316,470.482,41.519,463.684,41.519,455.298z"/>
<path style="fill:#957755;" d="M154.107,470.482v-260.08h316.374v244.896c0,8.386-6.798,15.184-15.184,15.184H154.107z"/>
<path style="fill:#806749;" d="M440.332,210.402v244.896c0,8.386-6.798,15.184-15.184,15.184h30.149
	c8.386,0,15.184-6.798,15.184-15.184V210.402H440.332z"/>
<path style="fill:#FFB656;" d="M255.437,210.402h102.456v118.926c0,8.418-8.502,14.174-16.317,11.047l-40.513-16.205l-28.406,14.203
	c-7.912,3.955-17.219-1.797-17.219-10.642V210.402z"/>
<path style="fill:#FFA733;" d="M327.797,210.402v118.926c0,1.846-0.428,3.552-1.148,5.077l14.927,5.971
	c7.816,3.127,16.317-2.629,16.317-11.047V210.402H327.797z"/>
</svg>